<?xml version="1.0" encoding="UTF-8"?>
<svg id="Layer_1" data-name="Layer 1" xmlns="http://www.w3.org/2000/svg" viewBox="0 0 32 32">
  <defs>
    <style>
      .cls-1 {
        fill: #c15f3c;
      }
    </style>
  </defs>
  <path class="cls-1" d="m16.39,3c1.7.07,3.22,1.04,4.15,2.89,2.09,4.15,4.17,8.32,6.25,12.48.83,1.66,1.66,3.31,2.49,4.97.83,1.68.57,3.42-.69,4.63-1.23,1.18-3,1.36-4.61.49-5.31-2.85-10.63-2.86-15.95,0-1.62.87-3.37.69-4.61-.49-1.25-1.2-1.53-2.91-.7-4.57,2.92-5.85,5.84-11.7,8.78-17.55.91-1.81,2.58-2.83,4.89-2.84Z"/>
</svg>