<?xml version="1.0" encoding="UTF-8"?>
<svg id="Layer_1" data-name="Layer 1" xmlns="http://www.w3.org/2000/svg" viewBox="0 0 240 64">
  <defs>
    <style>
      .cls-1 {
        fill: #c15f3c;
      }
    </style>
  </defs>
  <path class="cls-1" d="m40.13,2c3.92.16,7.42,2.4,9.57,6.67,4.83,9.59,9.62,19.19,14.42,28.79,1.91,3.82,3.83,7.65,5.73,11.47,1.93,3.87,1.32,7.9-1.59,10.68-2.84,2.71-6.93,3.13-10.64,1.14-12.26-6.58-24.53-6.6-36.8-.02-3.73,2-7.78,1.6-10.64-1.14-2.89-2.77-3.53-6.72-1.62-10.55,6.74-13.51,13.49-27.01,20.27-40.5,2.09-4.17,5.95-6.54,11.29-6.55Z"/>
  <g>
    <path class="cls-1" d="m104.71,20.22v27.78h-5.97v-3.04c-2.7,1.89-6.08,3.04-9.81,3.04-8.67,0-15.72-6.2-15.72-13.89s7.06-13.89,15.72-13.89c3.73,0,7.12,1.15,9.81,3.04v-3.04h5.97Zm-15.78,21.86c5.45,0,9.81-3.56,9.81-7.98s-4.36-7.92-9.81-7.92-9.81,3.56-9.81,7.92,4.42,7.98,9.81,7.98Z"/>
    <path class="cls-1" d="m114.18,20.22v2.35c1.61-1.32,3.56-2.18,5.91-2.35,4.02-.29,7.58,1.15,9.64,4.48,1.72-2.58,4.36-4.19,7.8-4.48,6.66-.46,12.17,3.79,11.48,13.89v13.89h-5.91v-16.18c0-2.29-1.38-4.25-3.27-5.16-.8-.46-1.72-.69-2.75-.57-2.87.11-5.16,2.35-5.45,5.16.06.92.06,1.89,0,2.87v13.89h-5.97v-16.18c0-2.29-1.32-4.25-3.27-5.16-.8-.46-1.72-.69-2.7-.57-3.04.11-5.51,2.64-5.51,5.74v16.18h-5.91v-27.78h5.91Z"/>
    <path class="cls-1" d="m166.75,47.99c-8.67,0-15.72-6.2-15.72-13.89s7.06-13.89,15.72-13.89c6.02,0,14.69,2.93,13.83,12.17-.69,7.52-16.64,6.89-22.55,5.34,1.66,2.58,4.94,4.36,8.72,4.36,3.1,0,5.8-1.15,7.63-2.93l5.57,2.58c-2.81,3.73-7.69,6.25-13.2,6.25Zm6.48-15.15c1.95-.86,1.55-3.04.4-4.36-1.09-1.15-3.04-2.01-6.54-2.07-4.02-.12-9.3,1.84-9.87,5.85,2.01,1.38,12.34,2.24,16.01.57Z"/>
    <path class="cls-1" d="m183.16,47.99V7.82h5.91v40.17h-5.91Z"/>
    <path class="cls-1" d="m192.69,13.05h5.91v5.97h-5.91v-5.97Zm5.91,7.17v27.78h-5.91v-27.78h5.91Z"/>
    <path class="cls-1" d="m232.51,20.22v27.78h-5.97v-3.04c-2.7,1.89-6.08,3.04-9.81,3.04-8.67,0-15.72-6.2-15.72-13.89s7.06-13.89,15.72-13.89c3.73,0,7.12,1.15,9.81,3.04v-3.04h5.97Zm-15.78,21.86c5.45,0,9.81-3.56,9.81-7.98s-4.36-7.92-9.81-7.92-9.81,3.56-9.81,7.92,4.42,7.98,9.81,7.98Z"/>
  </g>
</svg>